<svg width="16" height="31" viewBox="0 0 16 31" fill="none" xmlns="http://www.w3.org/2000/svg">
<path d="M0 16.9864C0 15.2073 0 13.4282 0 11.5877C1.47239 11.5877 2.88344 11.5877 4.35583 11.5877C4.35583 11.4036 4.35583 11.2809 4.35583 11.1582C4.35583 9.56312 4.29448 7.96803 4.41718 6.37294C4.53988 4.3484 5.33742 2.56926 7.11656 1.34226C8.15951 0.667415 9.2638 0.299316 10.4908 0.299316C12.0245 0.299316 13.4969 0.360666 15.0307 0.422016C15.0307 2.07846 15.0307 3.67355 15.0307 5.26864C14.908 5.26864 14.7853 5.26864 14.6626 5.26864C13.8037 5.26864 12.8834 5.26864 12.0245 5.26864C10.4908 5.32999 9.8773 5.88214 9.7546 7.41588C9.69325 8.76557 9.7546 10.1153 9.7546 11.5263C11.3497 11.5263 13.0061 11.5263 14.6012 11.5263C14.3558 13.3055 14.1718 15.0846 13.9264 16.8637C12.5153 16.8637 11.1656 16.8637 9.7546 16.8637C9.7546 21.3423 9.7546 25.8208 9.7546 30.2993C7.97546 30.2993 6.19632 30.2993 4.41718 30.2993C4.41718 25.8208 4.41718 21.4036 4.41718 16.8637C2.88344 16.9864 1.41104 16.9864 0 16.9864Z" fill="#333333"/>
</svg>
