<svg width="31" height="26" viewBox="0 0 31 26" fill="none" xmlns="http://www.w3.org/2000/svg">
<path d="M5.74994 15.3242C5.33177 15.1673 4.91359 15.0105 4.49541 14.8014C2.66588 13.8605 1.62044 12.3446 1.20226 10.3583C1.14999 10.0447 1.09772 9.73103 1.09772 9.4174C1.09772 9.05149 1.14999 9.05149 1.46362 9.20831C2.14316 9.52194 2.8227 9.73103 3.60678 9.83557C3.65905 9.83557 3.65905 9.83557 3.7636 9.83557C3.60678 9.67876 3.50224 9.57421 3.34542 9.46967C2.03862 8.31968 1.35908 6.85606 1.20226 5.18335C0.993172 3.87654 1.20226 2.72655 1.82953 1.68111C1.98634 1.36748 2.09089 1.36748 2.35225 1.62884C4.49541 4.08563 7.10902 5.75834 10.1931 6.85606C11.6567 7.37878 13.1726 7.69241 14.6885 7.95378C14.7408 7.95378 14.793 7.95378 14.8976 7.95378C14.8976 7.69241 14.8453 7.48333 14.8453 7.27424C14.5317 4.66063 16.0998 2.09929 18.3475 1.00157C19.393 0.47885 20.543 0.217489 21.7452 0.322033C23.2089 0.426578 24.5157 1.00157 25.5611 2.04702C25.7179 2.20383 25.8747 2.25611 26.0838 2.20383C27.2861 1.8902 28.3838 1.47202 29.4815 0.897027C29.5338 0.792483 29.5861 0.792483 29.7429 0.740211C29.3247 2.15156 28.4361 3.197 27.3906 4.08563V4.1379C28.3315 3.87654 29.2724 3.56291 30.2656 3.30155C30.2133 3.45837 30.2133 3.61518 30.1611 3.772C29.4815 4.76517 28.6974 5.70607 27.652 6.38561C27.4429 6.54243 27.3906 6.69924 27.3906 6.90833C27.3906 9.67876 26.9725 12.3969 25.9793 15.0105C24.202 19.4537 21.0134 22.4332 16.5703 24.1582C14.8976 24.7854 13.1726 25.1513 11.4476 25.2559C8.88628 25.4127 6.37721 25.1513 3.97269 24.3672C2.66588 23.9491 1.41135 23.3741 0.209089 22.6423C0.104544 22.59 0.0522722 22.5377 0 22.4854C0 22.4332 0 22.4332 0 22.3809C0.156817 22.3809 0.313633 22.3809 0.47045 22.3809C2.29998 22.59 4.02496 22.2764 5.69767 21.7014C6.63857 21.3877 7.5272 21.0741 8.36355 20.4991C8.62492 20.3423 8.78173 20.1332 9.09536 19.9241C8.93855 19.8718 8.834 19.8718 8.72946 19.8196C7.00448 19.5059 5.48858 18.8264 4.39087 17.415C3.97269 16.8923 3.71133 16.2651 3.39769 15.6901C3.24088 15.4287 3.29315 15.3764 3.60678 15.3764C4.33859 15.3764 5.0704 15.3764 5.80222 15.3764C5.74994 15.3242 5.74994 15.3242 5.74994 15.3242Z" fill="#333333"/>
</svg>
