<svg width="30" height="31" viewBox="0 0 30 31" fill="none" xmlns="http://www.w3.org/2000/svg">
<path d="M0 15.2802C0 13.2655 0 11.1897 0 9.17492C0 7.52649 0.488425 6.00016 1.34317 4.59593C2.68634 2.45907 4.64004 1.1159 7.08217 0.505371C7.87586 0.322211 8.7306 0.261158 9.58535 0.322211C10.1959 0.383265 10.8064 0.322211 11.3559 0.322211C12.0275 0.322211 12.638 0.322211 13.3096 0.322211C15.8128 0.322211 18.377 0.322211 20.8802 0.322211C21.9181 0.322211 22.956 0.444318 23.9939 0.87169C27.1076 2.09275 29.0613 4.29067 29.7939 7.58754C29.9161 8.13702 29.9771 8.6865 29.9771 9.23597C29.9771 13.3265 29.9771 17.4171 29.9771 21.5077C29.9771 23.7056 29.1834 25.6593 27.7181 27.3077C26.3139 28.8951 24.4823 29.8719 22.4065 30.1772C21.9181 30.2383 21.4297 30.2993 20.9412 30.2993C18.377 30.2993 15.7517 30.2993 13.1875 30.2993C12.1496 30.2993 11.1117 30.2383 10.0127 30.2993C9.21903 30.2993 8.36428 30.2993 7.57059 30.1772C6.04426 29.933 4.70109 29.3225 3.48003 28.3456C1.70949 26.9414 0.610532 25.1098 0.18316 22.8508C0.0610532 22.3624 0.0610532 21.8129 0.0610532 21.3245C1.36464e-08 19.2487 0 17.295 0 15.2802ZM14.958 27.4298C17.0338 27.4298 19.0486 27.4298 21.1244 27.4298C22.1012 27.4298 23.017 27.1856 23.8107 26.6972C25.9476 25.4761 27.1076 23.6445 27.1076 21.1413C27.1076 18.5161 27.1076 15.9518 27.1076 13.3265C27.1076 11.9834 27.1076 10.7013 27.1076 9.35808C27.1076 8.62544 26.9855 7.83175 26.7413 7.16017C25.8865 4.77909 23.5055 3.13066 21.0023 3.13066C16.9728 3.13066 13.0043 3.13066 8.97482 3.13066C8.6085 3.13066 8.30323 3.19171 7.93691 3.25276C4.94531 3.80224 2.80845 6.36648 2.80845 9.35808C2.80845 13.3265 2.80845 17.295 2.80845 21.2024C2.80845 21.5687 2.80845 21.9961 2.93055 22.3624C3.48003 25.354 6.04426 27.4298 9.09692 27.4298C10.9896 27.4298 13.0043 27.4298 14.958 27.4298Z" fill="#333333"/>
<path d="M15.0803 7.89307C19.1709 7.89307 22.4677 11.1899 22.4677 15.2805C22.4677 19.31 19.1709 22.6069 15.0803 22.6069C11.0508 22.6069 7.75392 19.31 7.69287 15.2805C7.69287 11.251 11.0508 7.89307 15.0803 7.89307ZM15.0803 19.9816C17.6445 19.9816 19.8425 17.8447 19.8425 15.2805C19.8425 12.6552 17.7666 10.5184 15.0803 10.5184C12.5161 10.5184 10.3792 12.5942 10.3792 15.2194C10.3792 17.9058 12.455 19.9816 15.0803 19.9816Z" fill="#333333"/>
<path d="M22.8951 5.69482C23.8719 5.69482 24.6656 6.48852 24.6656 7.46537C24.6656 8.44222 23.8719 9.23591 22.8951 9.23591C21.9182 9.23591 21.1245 8.44222 21.1245 7.46537C21.1245 6.42746 21.9182 5.69482 22.8951 5.69482Z" fill="#333333"/>
</svg>
