<svg width="26" height="26" viewBox="0 0 26 26" fill="none" xmlns="http://www.w3.org/2000/svg">
<path fill-rule="evenodd" clip-rule="evenodd" d="M25.0131 7.6979V18.3008C25.0131 22.2293 22.5545 25 18.6261 25H7.374C3.44553 25 1 22.2293 1 18.3008V7.6979C1 3.76944 3.45854 1 7.374 1H18.6261C22.5545 1 25.0131 3.76944 25.0131 7.6979Z" stroke="#222222" stroke-width="1.5" stroke-linecap="round" stroke-linejoin="round"/>
<path d="M4.29297 18.7963L6.28062 16.6981C6.97135 15.9657 8.12257 15.9306 8.85623 16.62C8.87835 16.6421 10.0751 17.8584 10.0751 17.8584C10.7971 18.5933 11.977 18.6051 12.7119 17.8844C12.76 17.8376 15.7479 14.2135 15.7479 14.2135C16.518 13.2782 17.9007 13.1442 18.8373 13.9156C18.8998 13.9676 21.7227 16.8646 21.7227 16.8646" stroke="#F05A22" stroke-width="1.5" stroke-linecap="round" stroke-linejoin="round"/>
<path fill-rule="evenodd" clip-rule="evenodd" d="M10.8367 9.30299C10.8367 10.5635 9.81556 11.5847 8.55507 11.5847C7.29458 11.5847 6.27344 10.5635 6.27344 9.30299C6.27344 8.0425 7.29458 7.02136 8.55507 7.02136C9.81556 7.02266 10.8367 8.0425 10.8367 9.30299Z" stroke="#F05A22" stroke-width="1.5" stroke-linecap="round" stroke-linejoin="round"/>
</svg>
