<svg width="135" height="49" viewBox="0 0 135 49" fill="none" xmlns="http://www.w3.org/2000/svg">
<path d="M77.5224 10.9506C77.5224 10.6296 77.5224 10.3085 77.5224 9.98745C77.5224 9.17021 77.5224 8.32378 77.5224 7.50653C77.5224 7.27303 77.5807 7.21466 77.8142 7.21466C79.4195 7.21466 80.9957 7.21466 82.601 7.21466C82.922 7.21466 83.2139 7.18547 83.535 7.18547C83.856 7.18547 83.9436 7.27303 83.9144 7.5941C83.9144 7.91516 83.9144 8.23622 83.9144 8.55728C83.9144 16.3795 83.9144 24.2309 83.9144 32.0531C83.9144 32.1114 83.9144 32.1406 83.9144 32.199C83.9144 32.5784 83.7685 32.7244 83.389 32.7244C82.4258 32.7244 81.4335 32.7244 80.4703 32.7244C79.5947 32.7244 78.719 32.7244 77.8434 32.7244C77.7559 32.7244 77.6683 32.7244 77.5516 32.6952C77.5516 31.3526 77.5516 30.0099 77.5516 28.6673C77.5224 28.6673 77.5224 28.6381 77.4932 28.6381C77.3472 28.7841 77.2013 28.93 77.0554 29.1051C76.1798 30.2143 75.1582 31.2066 73.9031 31.8779C70.5174 33.6875 67.1317 33.6875 63.8043 31.7904C60.2143 29.7181 58.1712 26.595 57.5874 22.4796C57.3248 20.4949 57.2372 18.481 57.7042 16.4962C58.4339 13.3148 59.9808 10.6588 62.7244 8.79077C64.7383 7.41897 66.9566 6.6601 69.3791 6.68929C71.3347 6.71848 73.2026 7.15628 74.8079 8.32378C75.4501 8.79077 76.0046 9.4329 76.5592 9.98745C76.8802 10.3085 77.1429 10.6296 77.464 10.9506C77.464 10.9798 77.4932 10.9798 77.5224 10.9506ZM63.9211 20.1154C63.9503 20.4365 63.9795 20.9911 64.067 21.5164C64.1254 21.8959 64.213 22.2753 64.3297 22.6547C65.3804 26.1864 68.9121 28.2295 72.4438 27.2663C74.9831 26.595 76.53 24.8438 77.2597 22.3337C77.6683 20.9327 77.6099 19.5317 77.3764 18.1307C76.7343 14.1612 73.0859 11.8554 69.7002 12.4392C68.0657 12.7311 66.6355 13.4316 65.5848 14.7742C64.3881 16.2919 63.9503 18.014 63.9211 20.1154Z" fill="white"/>
<path d="M16.1414 23.7928C16.2873 23.7928 16.3749 23.7636 16.4624 23.7636C18.3888 23.7636 20.3151 23.7636 22.2707 23.7636C22.8836 23.7636 23.0879 23.9096 23.2047 24.4933C23.5549 26.4197 24.6932 27.5288 26.6196 27.8791C28.0206 28.1417 29.3632 28.0542 30.6475 27.3829C33.1284 26.1278 33.1576 23.1507 32.1944 21.7497C31.7858 21.166 31.2604 20.7573 30.6183 20.4655C28.3417 19.4439 25.9775 18.7142 23.5841 18.1013C22.3583 17.7802 21.1616 17.4008 20.0525 16.7879C18.0969 15.7371 16.9002 14.1318 16.404 12.0012C15.9371 10.0164 15.9662 8.09006 16.7543 6.19288C17.7175 3.79952 19.4979 2.22341 21.8329 1.20185C23.7593 0.38461 25.7732 -0.0531999 27.8747 0.00517471C30.2972 0.0635493 32.603 0.647296 34.7337 1.81479C36.7476 2.92391 37.9443 4.64596 38.4697 6.86419C38.6448 7.62306 38.7615 8.41112 38.9075 9.22836C38.7032 9.22836 38.5572 9.25755 38.4113 9.25755C36.3682 9.25755 34.3251 9.25755 32.2528 9.28674C31.8441 9.28674 31.7858 9.19918 31.6982 8.79056C31.3771 7.01013 30.1513 5.72589 28.4 5.40483C26.7947 5.11295 25.2478 5.37564 23.9344 6.42638C23.1463 7.0685 22.8836 7.94412 22.8253 8.9073C22.7085 10.892 23.6717 12.4098 25.5689 13.0519C27.4368 13.694 29.3632 14.2194 31.2312 14.8615C32.603 15.3285 33.9748 15.7663 35.2591 16.3501C37.5357 17.3716 38.8199 19.2104 39.2285 21.6622C39.5496 23.6761 39.3453 25.6316 38.4405 27.4996C37.3022 29.7762 35.5217 31.3232 33.1576 32.1988C31.2896 32.8993 29.334 33.3079 27.3493 33.2495C24.3138 33.162 21.5118 32.3447 19.0601 30.4475C17.484 29.2217 16.6084 27.558 16.2873 25.5733C16.2289 24.9895 16.1997 24.4058 16.1414 23.7928Z" fill="white"/>
<path d="M44.1617 12.5268C43.3153 12.5268 42.4689 12.5268 41.5933 12.5268C41.5933 10.7464 41.5933 9.02434 41.5933 7.24391C42.4397 7.24391 43.2569 7.24391 44.1326 7.24391C44.1326 5.14243 44.1326 3.04094 44.1326 0.939453C46.2924 0.939453 48.4231 0.939453 50.583 0.939453C50.583 3.01175 50.583 5.05486 50.583 7.15635C52.4801 7.15635 54.3481 7.15635 56.2453 7.15635C56.2453 8.93677 56.2453 10.688 56.2453 12.4393C54.3773 12.4393 52.5385 12.4393 50.6705 12.4393C50.6705 12.7019 50.6413 12.9062 50.6413 13.1397C50.6413 17.1092 50.6413 21.0787 50.6413 25.019C50.6413 25.2817 50.6705 25.5735 50.7289 25.8362C50.9332 26.7702 51.5753 27.2664 52.5969 27.2664C53.7936 27.2956 54.961 27.2956 56.1577 27.3248C56.2161 27.3248 56.3037 27.3248 56.3912 27.3248C56.3912 27.4415 56.4204 27.5291 56.4204 27.6166C56.4204 29.1052 56.4204 30.5938 56.4204 32.0823C56.4204 32.6369 56.3329 32.6952 55.7783 32.6952C54.3189 32.6952 52.8596 32.7244 51.4002 32.6661C50.1451 32.6369 48.9485 32.4034 47.8102 31.878C45.8254 30.9732 44.7163 29.4263 44.3952 27.2956C44.3077 26.7702 44.2785 26.2448 44.2785 25.7195C44.2493 24.0558 44.2785 22.3629 44.2493 20.6993C44.2493 18.0432 44.2201 15.358 44.2201 12.7019C44.1617 12.7019 44.1617 12.6144 44.1617 12.5268Z" fill="white"/>
<path d="M88.7891 32.6949C88.7891 24.2014 88.7891 15.7079 88.7891 7.24358C90.8905 7.24358 92.992 7.24358 95.1519 7.24358C95.1519 8.64457 95.1519 10.0748 95.1519 11.4757C95.1811 11.4757 95.2103 11.5049 95.2394 11.5049C95.327 11.3882 95.4146 11.2714 95.473 11.1547C96.2318 9.89963 97.1366 8.79051 98.3917 8.00245C99.6175 7.2144 100.931 6.86415 102.361 6.83496C102.42 6.83496 102.449 6.83496 102.507 6.83496C102.536 6.83496 102.536 6.83496 102.565 6.86415C102.565 9.02401 102.565 11.1839 102.565 13.3729C102.361 13.3729 102.157 13.4021 101.923 13.4021C100.785 13.4313 99.6175 13.4897 98.5084 13.8107C96.5529 14.3945 95.5021 15.6495 95.327 17.6635C95.2395 18.8018 95.1519 19.9401 95.1519 21.1076C95.1227 24.8435 95.1227 28.5795 95.0935 32.3155C95.0935 32.6949 95.0643 32.7241 94.6849 32.7241C92.8169 32.7241 90.9197 32.7241 89.0517 32.7241C88.9934 32.6949 88.9058 32.6949 88.7891 32.6949Z" fill="white"/>
<path d="M0.000997087 26.4197C-0.0573775 23.1215 2.45273 20.3779 6.13033 20.3779C9.60362 20.3779 12.2013 22.9756 12.1721 26.5656C12.1429 29.9806 9.48687 32.6074 5.9844 32.549C2.62785 32.5198 -0.0573775 29.893 0.000997087 26.4197Z" fill="#F05A22"/>
<path d="M130.76 28.7544C130.76 28.842 130.76 28.9004 130.76 28.9879C130.76 29.0171 130.731 29.0463 130.731 29.0755C130.731 29.6592 130.702 30.2138 130.702 30.7976C130.702 31.5856 130.702 32.3445 130.702 33.1325C130.702 33.1617 130.702 33.1909 130.702 33.2493C130.643 33.2493 130.585 33.2493 130.526 33.2493C128.95 33.2493 127.403 33.2493 125.827 33.2493C125.565 33.2493 125.331 33.1617 125.156 32.9574C124.339 32.1402 123.521 31.3229 122.704 30.5057C121.216 29.0171 119.756 27.5286 118.268 26.0692C117.188 24.9893 116.137 23.9385 115.086 22.8586C114.824 22.5959 114.59 22.3332 114.327 22.0414C114.182 21.8662 114.036 21.7203 113.86 21.5452C113.831 21.6035 113.773 21.6327 113.744 21.6619C113.218 22.2749 112.693 22.917 112.168 23.5299C111.876 23.8802 111.73 24.2596 111.73 24.6974C111.73 25.0768 111.759 25.4271 111.759 25.8065C111.759 27.12 111.759 28.4626 111.759 29.776C111.759 30.6516 111.759 31.498 111.759 32.3737C111.759 32.6072 111.73 32.8115 111.759 33.045C111.759 33.1617 111.701 33.1617 111.613 33.1617C109.862 33.1617 108.081 33.1617 106.33 33.1617C106.301 33.1617 106.243 33.1617 106.213 33.1617C106.213 22.1581 106.213 11.1837 106.213 0.180066C106.272 0.180066 106.301 0.180066 106.359 0.180066C108.111 0.180066 109.891 0.180066 111.642 0.180066C111.671 0.180066 111.73 0.180066 111.788 0.180066C111.788 5.1711 111.788 10.1621 111.788 15.1823C111.817 15.124 111.847 15.0948 111.876 15.0656C113.102 13.4019 114.327 11.7091 115.553 10.0454C117.917 6.83477 120.252 3.65336 122.617 0.442752C122.675 0.35519 122.763 0.238441 122.821 0.150879C125.448 0.150879 128.045 0.150879 130.672 0.150879C130.585 0.267628 130.497 0.35519 130.439 0.471939C129.563 1.66862 128.658 2.83611 127.783 4.03279C126.674 5.55053 125.535 7.06827 124.426 8.58601C123.638 9.63675 122.879 10.6875 122.091 11.7091C121.42 12.6139 120.749 13.5187 120.077 14.4235C119.698 14.9197 119.348 15.4158 118.968 15.9412C118.939 15.9996 118.939 16.0288 118.968 16.058C119.114 16.2039 119.231 16.3498 119.377 16.4958C122.529 19.6772 125.711 22.8294 128.863 25.9816C129.271 26.3903 129.68 26.7697 130.089 27.1491C130.468 27.4994 130.731 27.9372 130.789 28.4626C130.731 28.6085 130.76 28.6961 130.76 28.7544ZM124.981 30.6224C125.331 30.9727 125.711 31.3229 126.061 31.6732C126.09 31.7024 126.119 31.7024 126.148 31.7024C126.323 31.7024 126.499 31.7024 126.703 31.6732C126.966 31.6732 127.228 31.644 127.491 31.644C127.491 31.0894 127.491 30.5349 127.491 29.9803C128.045 29.9803 128.6 29.9803 129.184 29.9803C129.155 29.5133 129.125 29.0463 129.096 28.5793C129.096 28.5501 129.067 28.5209 129.038 28.4918C128.688 28.1415 128.337 27.7913 127.987 27.441C127.958 27.4118 127.958 27.4118 127.929 27.3826C126.966 28.4626 125.973 29.5425 124.981 30.6224ZM119.494 19.2102C119.318 19.2102 119.202 19.2978 119.173 19.4145C119.114 19.5604 119.173 19.648 119.289 19.7647C121.653 22.1289 124.047 24.5223 126.411 26.8865C126.44 26.9156 126.44 26.9156 126.469 26.9448C126.644 27.0908 126.907 27.0032 126.966 26.7697C126.995 26.653 126.907 26.5654 126.849 26.4778C124.601 24.2304 122.325 21.9538 120.077 19.7064C119.961 19.5896 119.844 19.4729 119.727 19.3561C119.61 19.2686 119.552 19.2394 119.494 19.2102Z" fill="white"/>
<path d="M17.4225 44.4173H19.9419V45.5903H15.8007V44.4377L18.2691 41.1125H15.8109V39.9395H19.9113V41.0921L17.4225 44.4173ZM23.5568 45.6821C23.0128 45.6821 22.5232 45.5631 22.088 45.3251C21.6528 45.0803 21.3094 44.7369 21.0577 44.2949C20.813 43.8529 20.6906 43.3429 20.6906 42.7649C20.6906 42.1869 20.8164 41.6769 21.068 41.2349C21.3264 40.7929 21.6766 40.4529 22.1186 40.2149C22.5606 39.9701 23.0536 39.8477 23.5975 39.8477C24.1416 39.8477 24.6346 39.9701 25.0766 40.2149C25.5186 40.4529 25.8654 40.7929 26.117 41.2349C26.3754 41.6769 26.5046 42.1869 26.5046 42.7649C26.5046 43.3429 26.372 43.8529 26.1067 44.2949C25.8483 44.7369 25.4948 45.0803 25.046 45.3251C24.604 45.5631 24.1076 45.6821 23.5568 45.6821ZM23.5568 44.4377C23.8152 44.4377 24.0566 44.3765 24.281 44.2541C24.5122 44.1249 24.6958 43.9345 24.8318 43.6829C24.9678 43.4313 25.0357 43.1253 25.0357 42.7649C25.0357 42.2277 24.893 41.8163 24.6074 41.5307C24.3285 41.2383 23.9851 41.0921 23.5771 41.0921C23.1691 41.0921 22.8257 41.2383 22.547 41.5307C22.275 41.8163 22.139 42.2277 22.139 42.7649C22.139 43.3021 22.2716 43.7169 22.5367 44.0093C22.8088 44.2949 23.1488 44.4377 23.5568 44.4377ZM30.0612 45.6821C29.5172 45.6821 29.0276 45.5631 28.5924 45.3251C28.1572 45.0803 27.8138 44.7369 27.5622 44.2949C27.3174 43.8529 27.195 43.3429 27.195 42.7649C27.195 42.1869 27.3208 41.6769 27.5724 41.2349C27.8308 40.7929 28.181 40.4529 28.623 40.2149C29.065 39.9701 29.558 39.8477 30.102 39.8477C30.646 39.8477 31.139 39.9701 31.581 40.2149C32.023 40.4529 32.3698 40.7929 32.6214 41.2349C32.8798 41.6769 33.009 42.1869 33.009 42.7649C33.009 43.3429 32.8764 43.8529 32.6112 44.2949C32.3528 44.7369 31.9992 45.0803 31.5504 45.3251C31.1084 45.5631 30.612 45.6821 30.0612 45.6821ZM30.0612 44.4377C30.3196 44.4377 30.561 44.3765 30.7854 44.2541C31.0166 44.1249 31.2002 43.9345 31.3362 43.6829C31.4722 43.4313 31.5402 43.1253 31.5402 42.7649C31.5402 42.2277 31.3974 41.8163 31.1118 41.5307C30.833 41.2383 30.4896 41.0921 30.0816 41.0921C29.6736 41.0921 29.3302 41.2383 29.0514 41.5307C28.7794 41.8163 28.6434 42.2277 28.6434 42.7649C28.6434 43.3021 28.776 43.7169 29.0412 44.0093C29.3132 44.2949 29.6532 44.4377 30.0612 44.4377ZM41.0741 39.8579C41.7677 39.8579 42.3253 40.0721 42.7469 40.5005C43.1753 40.9221 43.3895 41.5137 43.3895 42.2753V45.5903H41.9615V42.4691C41.9615 42.0271 41.8493 41.6905 41.6249 41.4593C41.4005 41.2213 41.0945 41.1023 40.7069 41.1023C40.3193 41.1023 40.0099 41.2213 39.7787 41.4593C39.5543 41.6905 39.4421 42.0271 39.4421 42.4691V45.5903H38.0141V42.4691C38.0141 42.0271 37.9019 41.6905 37.6775 41.4593C37.4531 41.2213 37.1471 41.1023 36.7595 41.1023C36.3651 41.1023 36.0523 41.2213 35.8211 41.4593C35.5967 41.6905 35.4845 42.0271 35.4845 42.4691V45.5903H34.0565V39.9395H35.4845V40.6229C35.6681 40.3849 35.9027 40.1979 36.1883 40.0619C36.4807 39.9259 36.8003 39.8579 37.1471 39.8579C37.5891 39.8579 37.9835 39.9531 38.3303 40.1435C38.6771 40.3271 38.9457 40.5923 39.1361 40.9391C39.3197 40.6127 39.5849 40.3509 39.9317 40.1537C40.2853 39.9565 40.6661 39.8579 41.0741 39.8579ZM45.4688 39.2663C45.2172 39.2663 45.0064 39.1881 44.8364 39.0317C44.6732 38.8685 44.5916 38.6679 44.5916 38.4299C44.5916 38.1919 44.6732 37.9947 44.8364 37.8383C45.0064 37.6751 45.2172 37.5935 45.4688 37.5935C45.7204 37.5935 45.9278 37.6751 46.091 37.8383C46.261 37.9947 46.346 38.1919 46.346 38.4299C46.346 38.6679 46.261 38.8685 46.091 39.0317C45.9278 39.1881 45.7204 39.2663 45.4688 39.2663ZM46.1726 39.9395V45.5903H44.7446V39.9395H46.1726ZM50.7149 39.8579C51.3881 39.8579 51.9321 40.0721 52.3469 40.5005C52.7617 40.9221 52.9691 41.5137 52.9691 42.2753V45.5903H51.5411V42.4691C51.5411 42.0203 51.4289 41.6769 51.2045 41.4389C50.9801 41.1941 50.6741 41.0717 50.2865 41.0717C49.8921 41.0717 49.5793 41.1941 49.3481 41.4389C49.1237 41.6769 49.0115 42.0203 49.0115 42.4691V45.5903H47.5835V39.9395H49.0115V40.6433C49.2019 40.3985 49.4433 40.2081 49.7357 40.0721C50.0349 39.9293 50.3613 39.8579 50.7149 39.8579ZM56.5404 39.8477C56.962 39.8477 57.3326 39.9327 57.6522 40.1027C57.9718 40.2659 58.2234 40.4801 58.407 40.7453V39.9395H59.8452V45.6311C59.8452 46.1547 59.7398 46.6205 59.529 47.0285C59.3182 47.4433 59.002 47.7697 58.5804 48.0077C58.1588 48.2525 57.6488 48.3749 57.0504 48.3749C56.248 48.3749 55.5884 48.1879 55.0716 47.8139C54.5616 47.4399 54.2726 46.9299 54.2046 46.2839H55.6224C55.6972 46.5423 55.857 46.7463 56.1018 46.8959C56.3534 47.0523 56.656 47.1305 57.0096 47.1305C57.4244 47.1305 57.761 47.0047 58.0194 46.7531C58.2778 46.5083 58.407 46.1343 58.407 45.6311V44.7539C58.2234 45.0191 57.9684 45.2401 57.642 45.4169C57.3224 45.5937 56.9552 45.6821 56.5404 45.6821C56.0644 45.6821 55.6292 45.5597 55.2348 45.3149C54.8404 45.0701 54.5276 44.7267 54.2964 44.2847C54.072 43.8359 53.9598 43.3225 53.9598 42.7445C53.9598 42.1733 54.072 41.6667 54.2964 41.2247C54.5276 40.7827 54.837 40.4427 55.2246 40.2047C55.619 39.9667 56.0576 39.8477 56.5404 39.8477ZM58.407 42.7649C58.407 42.4181 58.339 42.1223 58.203 41.8775C58.067 41.6259 57.8834 41.4355 57.6522 41.3063C57.421 41.1703 57.1728 41.1023 56.9076 41.1023C56.6424 41.1023 56.3976 41.1669 56.1732 41.2961C55.9488 41.4253 55.7652 41.6157 55.6224 41.8673C55.4864 42.1121 55.4184 42.4045 55.4184 42.7445C55.4184 43.0845 55.4864 43.3837 55.6224 43.6421C55.7652 43.8937 55.9488 44.0875 56.1732 44.2235C56.4044 44.3595 56.6492 44.4275 56.9076 44.4275C57.1728 44.4275 57.421 44.3629 57.6522 44.2337C57.8834 44.0977 58.067 43.9073 58.203 43.6625C58.339 43.4109 58.407 43.1117 58.407 42.7649ZM64.3946 39.2663C64.143 39.2663 63.9322 39.1881 63.7622 39.0317C63.599 38.8685 63.5174 38.6679 63.5174 38.4299C63.5174 38.1919 63.599 37.9947 63.7622 37.8383C63.9322 37.6751 64.143 37.5935 64.3946 37.5935C64.6462 37.5935 64.8536 37.6751 65.0168 37.8383C65.1868 37.9947 65.2718 38.1919 65.2718 38.4299C65.2718 38.6679 65.1868 38.8685 65.0168 39.0317C64.8536 39.1881 64.6462 39.2663 64.3946 39.2663ZM65.0984 39.9395V45.5903H63.6704V39.9395H65.0984ZM69.6407 39.8579C70.3139 39.8579 70.8579 40.0721 71.2727 40.5005C71.6875 40.9221 71.8949 41.5137 71.8949 42.2753V45.5903H70.4669V42.4691C70.4669 42.0203 70.3547 41.6769 70.1303 41.4389C69.9059 41.1941 69.5999 41.0717 69.2123 41.0717C68.8179 41.0717 68.5051 41.1941 68.2739 41.4389C68.0495 41.6769 67.9373 42.0203 67.9373 42.4691V45.5903H66.5093V39.9395H67.9373V40.6433C68.1277 40.3985 68.3691 40.2081 68.6615 40.0721C68.9607 39.9293 69.2871 39.8579 69.6407 39.8579ZM74.9154 41.1125V43.8461C74.9154 44.0365 74.9596 44.1759 75.048 44.2643C75.1432 44.3459 75.2996 44.3867 75.5172 44.3867H76.1802V45.5903H75.2826C74.079 45.5903 73.4772 45.0055 73.4772 43.8359V41.1125H72.804V39.9395H73.4772V38.5421H74.9154V39.9395H76.1802V41.1125H74.9154ZM79.7165 45.6821C79.1725 45.6821 78.6829 45.5631 78.2477 45.3251C77.8125 45.0803 77.4691 44.7369 77.2175 44.2949C76.9727 43.8529 76.8503 43.3429 76.8503 42.7649C76.8503 42.1869 76.9761 41.6769 77.2277 41.2349C77.4861 40.7929 77.8363 40.4529 78.2783 40.2149C78.7203 39.9701 79.2133 39.8477 79.7573 39.8477C80.3013 39.8477 80.7943 39.9701 81.2363 40.2149C81.6783 40.4529 82.0251 40.7929 82.2767 41.2349C82.5351 41.6769 82.6643 42.1869 82.6643 42.7649C82.6643 43.3429 82.5317 43.8529 82.2665 44.2949C82.0081 44.7369 81.6545 45.0803 81.2057 45.3251C80.7637 45.5631 80.2673 45.6821 79.7165 45.6821ZM79.7165 44.4377C79.9749 44.4377 80.2163 44.3765 80.4407 44.2541C80.6719 44.1249 80.8555 43.9345 80.9915 43.6829C81.1275 43.4313 81.1955 43.1253 81.1955 42.7649C81.1955 42.2277 81.0527 41.8163 80.7671 41.5307C80.4883 41.2383 80.1449 41.0921 79.7369 41.0921C79.3289 41.0921 78.9855 41.2383 78.7067 41.5307C78.4347 41.8163 78.2987 42.2277 78.2987 42.7649C78.2987 43.3021 78.4313 43.7169 78.6965 44.0093C78.9685 44.2949 79.3085 44.4377 79.7165 44.4377ZM88.3047 45.6821C87.8423 45.6821 87.4275 45.6005 87.0603 45.4373C86.6931 45.2673 86.4007 45.0395 86.1831 44.7539C85.9723 44.4683 85.8567 44.1521 85.8363 43.8053H87.2745C87.3017 44.0229 87.4071 44.2031 87.5907 44.3459C87.7811 44.4887 88.0157 44.5601 88.2945 44.5601C88.5665 44.5601 88.7773 44.5057 88.9269 44.3969C89.0833 44.2881 89.1615 44.1487 89.1615 43.9787C89.1615 43.7951 89.0663 43.6591 88.8759 43.5707C88.6923 43.4755 88.3965 43.3735 87.9885 43.2647C87.5669 43.1627 87.2201 43.0573 86.9481 42.9485C86.6829 42.8397 86.4517 42.6731 86.2545 42.4487C86.0641 42.2243 85.9689 41.9217 85.9689 41.5409C85.9689 41.2281 86.0573 40.9425 86.2341 40.6841C86.4177 40.4257 86.6761 40.2217 87.0093 40.0721C87.3493 39.9225 87.7471 39.8477 88.2027 39.8477C88.8759 39.8477 89.4131 40.0177 89.8143 40.3577C90.2155 40.6909 90.4365 41.1431 90.4773 41.7143H89.1105C89.0901 41.4899 88.9949 41.3131 88.8249 41.1839C88.6617 41.0479 88.4407 40.9799 88.1619 40.9799C87.9035 40.9799 87.7029 41.0275 87.5601 41.1227C87.4241 41.2179 87.3561 41.3505 87.3561 41.5205C87.3561 41.7109 87.4513 41.8571 87.6417 41.9591C87.8321 42.0543 88.1279 42.1529 88.5291 42.2549C88.9371 42.3569 89.2737 42.4623 89.5389 42.5711C89.8041 42.6799 90.0319 42.8499 90.2223 43.0811C90.4195 43.3055 90.5215 43.6047 90.5283 43.9787C90.5283 44.3051 90.4365 44.5975 90.2529 44.8559C90.0761 45.1143 89.8177 45.3183 89.4777 45.4679C89.1445 45.6107 88.7535 45.6821 88.3047 45.6821ZM94.2097 45.6821C93.6657 45.6821 93.1761 45.5631 92.7409 45.3251C92.3057 45.0803 91.9623 44.7369 91.7107 44.2949C91.4659 43.8529 91.3435 43.3429 91.3435 42.7649C91.3435 42.1869 91.4693 41.6769 91.7209 41.2349C91.9793 40.7929 92.3295 40.4529 92.7715 40.2149C93.2135 39.9701 93.7065 39.8477 94.2505 39.8477C94.7945 39.8477 95.2875 39.9701 95.7295 40.2149C96.1715 40.4529 96.5183 40.7929 96.7699 41.2349C97.0283 41.6769 97.1575 42.1869 97.1575 42.7649C97.1575 43.3429 97.0249 43.8529 96.7597 44.2949C96.5013 44.7369 96.1477 45.0803 95.6989 45.3251C95.2569 45.5631 94.7605 45.6821 94.2097 45.6821ZM94.2097 44.4377C94.4681 44.4377 94.7095 44.3765 94.9339 44.2541C95.1651 44.1249 95.3487 43.9345 95.4847 43.6829C95.6207 43.4313 95.6887 43.1253 95.6887 42.7649C95.6887 42.2277 95.5459 41.8163 95.2603 41.5307C94.9815 41.2383 94.6381 41.0921 94.2301 41.0921C93.8221 41.0921 93.4787 41.2383 93.1999 41.5307C92.9279 41.8163 92.7919 42.2277 92.7919 42.7649C92.7919 43.3021 92.9245 43.7169 93.1897 44.0093C93.4617 44.2949 93.8017 44.4377 94.2097 44.4377ZM99.633 38.0423V45.5903H98.205V38.0423H99.633ZM106.378 39.9395V45.5903H104.94V44.8763C104.757 45.1211 104.515 45.3149 104.216 45.4577C103.924 45.5937 103.604 45.6617 103.257 45.6617C102.815 45.6617 102.424 45.5699 102.084 45.3863C101.744 45.1959 101.476 44.9205 101.278 44.5601C101.088 44.1929 100.993 43.7577 100.993 43.2545V39.9395H102.421V43.0505C102.421 43.4993 102.533 43.8461 102.757 44.0909C102.982 44.3289 103.288 44.4479 103.675 44.4479C104.07 44.4479 104.379 44.3289 104.604 44.0909C104.828 43.8461 104.94 43.4993 104.94 43.0505V39.9395H106.378ZM109.45 41.1125V43.8461C109.45 44.0365 109.494 44.1759 109.583 44.2643C109.678 44.3459 109.834 44.3867 110.052 44.3867H110.715V45.5903H109.817C108.614 45.5903 108.012 45.0055 108.012 43.8359V41.1125H107.339V39.9395H108.012V38.5421H109.45V39.9395H110.715V41.1125H109.45ZM112.466 39.2663C112.214 39.2663 112.004 39.1881 111.834 39.0317C111.67 38.8685 111.589 38.6679 111.589 38.4299C111.589 38.1919 111.67 37.9947 111.834 37.8383C112.004 37.6751 112.214 37.5935 112.466 37.5935C112.718 37.5935 112.925 37.6751 113.088 37.8383C113.258 37.9947 113.343 38.1919 113.343 38.4299C113.343 38.6679 113.258 38.8685 113.088 39.0317C112.925 39.1881 112.718 39.2663 112.466 39.2663ZM113.17 39.9395V45.5903H111.742V39.9395H113.17ZM117.09 45.6821C116.546 45.6821 116.056 45.5631 115.621 45.3251C115.186 45.0803 114.843 44.7369 114.591 44.2949C114.346 43.8529 114.224 43.3429 114.224 42.7649C114.224 42.1869 114.35 41.6769 114.601 41.2349C114.86 40.7929 115.21 40.4529 115.652 40.2149C116.094 39.9701 116.587 39.8477 117.131 39.8477C117.675 39.8477 118.168 39.9701 118.61 40.2149C119.052 40.4529 119.399 40.7929 119.65 41.2349C119.909 41.6769 120.038 42.1869 120.038 42.7649C120.038 43.3429 119.905 43.8529 119.64 44.2949C119.382 44.7369 119.028 45.0803 118.579 45.3251C118.137 45.5631 117.641 45.6821 117.09 45.6821ZM117.09 44.4377C117.348 44.4377 117.59 44.3765 117.814 44.2541C118.045 44.1249 118.229 43.9345 118.365 43.6829C118.501 43.4313 118.569 43.1253 118.569 42.7649C118.569 42.2277 118.426 41.8163 118.141 41.5307C117.862 41.2383 117.518 41.0921 117.11 41.0921C116.702 41.0921 116.359 41.2383 116.08 41.5307C115.808 41.8163 115.672 42.2277 115.672 42.7649C115.672 43.3021 115.805 43.7169 116.07 44.0093C116.342 44.2949 116.682 44.4377 117.09 44.4377ZM124.217 39.8579C124.89 39.8579 125.434 40.0721 125.849 40.5005C126.263 40.9221 126.471 41.5137 126.471 42.2753V45.5903H125.043V42.4691C125.043 42.0203 124.931 41.6769 124.706 41.4389C124.482 41.1941 124.176 41.0717 123.788 41.0717C123.394 41.0717 123.081 41.1941 122.85 41.4389C122.625 41.6769 122.513 42.0203 122.513 42.4691V45.5903H121.085V39.9395H122.513V40.6433C122.704 40.3985 122.945 40.2081 123.237 40.0721C123.537 39.9293 123.863 39.8579 124.217 39.8579ZM129.991 45.6821C129.529 45.6821 129.114 45.6005 128.747 45.4373C128.38 45.2673 128.087 45.0395 127.87 44.7539C127.659 44.4683 127.543 44.1521 127.523 43.8053H128.961C128.988 44.0229 129.094 44.2031 129.277 44.3459C129.468 44.4887 129.702 44.5601 129.981 44.5601C130.253 44.5601 130.464 44.5057 130.613 44.3969C130.77 44.2881 130.848 44.1487 130.848 43.9787C130.848 43.7951 130.753 43.6591 130.562 43.5707C130.379 43.4755 130.083 43.3735 129.675 43.2647C129.253 43.1627 128.907 43.0573 128.635 42.9485C128.369 42.8397 128.138 42.6731 127.941 42.4487C127.751 42.2243 127.655 41.9217 127.655 41.5409C127.655 41.2281 127.744 40.9425 127.921 40.6841C128.104 40.4257 128.363 40.2217 128.696 40.0721C129.036 39.9225 129.434 39.8477 129.889 39.8477C130.562 39.8477 131.1 40.0177 131.501 40.3577C131.902 40.6909 132.123 41.1431 132.164 41.7143H130.797C130.777 41.4899 130.681 41.3131 130.511 41.1839C130.348 41.0479 130.127 40.9799 129.848 40.9799C129.59 40.9799 129.389 41.0275 129.247 41.1227C129.111 41.2179 129.043 41.3505 129.043 41.5205C129.043 41.7109 129.138 41.8571 129.328 41.9591C129.519 42.0543 129.814 42.1529 130.216 42.2549C130.624 42.3569 130.96 42.4623 131.225 42.5711C131.491 42.6799 131.718 42.8499 131.909 43.0811C132.106 43.3055 132.208 43.6047 132.215 43.9787C132.215 44.3051 132.123 44.5975 131.939 44.8559C131.763 45.1143 131.504 45.3183 131.164 45.4679C130.831 45.6107 130.44 45.6821 129.991 45.6821Z" fill="white"/>
</svg>
