<svg width="135" height="49" viewBox="0 0 135 49" fill="none" xmlns="http://www.w3.org/2000/svg">
<path d="M77.5224 10.9506C77.5224 10.6296 77.5224 10.3085 77.5224 9.98745C77.5224 9.17021 77.5224 8.32378 77.5224 7.50653C77.5224 7.27303 77.5807 7.21466 77.8142 7.21466C79.4195 7.21466 80.9957 7.21466 82.601 7.21466C82.922 7.21466 83.2139 7.18547 83.535 7.18547C83.856 7.18547 83.9436 7.27303 83.9144 7.5941C83.9144 7.91516 83.9144 8.23622 83.9144 8.55728C83.9144 16.3795 83.9144 24.2309 83.9144 32.0531C83.9144 32.1114 83.9144 32.1406 83.9144 32.199C83.9144 32.5784 83.7685 32.7244 83.389 32.7244C82.4258 32.7244 81.4335 32.7244 80.4703 32.7244C79.5947 32.7244 78.719 32.7244 77.8434 32.7244C77.7559 32.7244 77.6683 32.7244 77.5516 32.6952C77.5516 31.3526 77.5516 30.0099 77.5516 28.6673C77.5224 28.6673 77.5224 28.6381 77.4932 28.6381C77.3472 28.7841 77.2013 28.93 77.0554 29.1051C76.1798 30.2143 75.1582 31.2066 73.9031 31.8779C70.5174 33.6875 67.1317 33.6875 63.8043 31.7904C60.2143 29.7181 58.1712 26.595 57.5874 22.4796C57.3248 20.4949 57.2372 18.481 57.7042 16.4962C58.4339 13.3148 59.9808 10.6588 62.7244 8.79077C64.7383 7.41897 66.9566 6.6601 69.3791 6.68929C71.3347 6.71848 73.2026 7.15628 74.8079 8.32378C75.4501 8.79077 76.0046 9.4329 76.5592 9.98745C76.8802 10.3085 77.1429 10.6296 77.464 10.9506C77.464 10.9798 77.4932 10.9798 77.5224 10.9506ZM63.9211 20.1154C63.9503 20.4365 63.9795 20.9911 64.067 21.5164C64.1254 21.8959 64.213 22.2753 64.3297 22.6547C65.3804 26.1864 68.9121 28.2295 72.4438 27.2663C74.9831 26.595 76.53 24.8438 77.2597 22.3337C77.6683 20.9327 77.6099 19.5317 77.3764 18.1307C76.7343 14.1612 73.0859 11.8554 69.7002 12.4392C68.0657 12.7311 66.6355 13.4316 65.5848 14.7742C64.3881 16.2919 63.9503 18.014 63.9211 20.1154Z" fill="#222222"/>
<path d="M16.1416 23.7928C16.2875 23.7928 16.3751 23.7636 16.4627 23.7636C18.389 23.7636 20.3154 23.7636 22.2709 23.7636C22.8839 23.7636 23.0882 23.9096 23.2049 24.4933C23.5552 26.4197 24.6935 27.5288 26.6198 27.8791C28.0208 28.1417 29.3635 28.0542 30.6477 27.3829C33.1286 26.1278 33.1578 23.1507 32.1946 21.7497C31.786 21.166 31.2606 20.7573 30.6185 20.4655C28.3419 19.4439 25.9777 18.7142 23.5844 18.1013C22.3585 17.7802 21.1618 17.4008 20.0527 16.7879C18.0972 15.7371 16.9005 14.1318 16.4043 12.0012C15.9373 10.0164 15.9665 8.09006 16.7545 6.19288C17.7177 3.79952 19.4981 2.22341 21.8331 1.20185C23.7595 0.38461 25.7734 -0.0531999 27.8749 0.00517471C30.2975 0.0635493 32.6032 0.647296 34.7339 1.81479C36.7478 2.92391 37.9445 4.64596 38.4699 6.86419C38.645 7.62306 38.7618 8.41112 38.9077 9.22836C38.7034 9.22836 38.5575 9.25755 38.4115 9.25755C36.3684 9.25755 34.3253 9.25755 32.253 9.28674C31.8444 9.28674 31.786 9.19918 31.6984 8.79056C31.3774 7.01013 30.1515 5.72589 28.4003 5.40483C26.795 5.11295 25.248 5.37564 23.9346 6.42638C23.1466 7.0685 22.8839 7.94412 22.8255 8.9073C22.7087 10.892 23.6719 12.4098 25.5691 13.0519C27.4371 13.694 29.3635 14.2194 31.2314 14.8615C32.6032 15.3285 33.9751 15.7663 35.2593 16.3501C37.5359 17.3716 38.8201 19.2104 39.2288 21.6622C39.5498 23.6761 39.3455 25.6316 38.4407 27.4996C37.3024 29.7762 35.522 31.3232 33.1578 32.1988C31.2898 32.8993 29.3343 33.3079 27.3495 33.2495C24.3141 33.162 21.5121 32.3447 19.0603 30.4475C17.4842 29.2217 16.6086 27.558 16.2875 25.5733C16.2292 24.9895 16.2 24.4058 16.1416 23.7928Z" fill="#222222"/>
<path d="M44.1617 12.5268C43.3153 12.5268 42.4689 12.5268 41.5933 12.5268C41.5933 10.7464 41.5933 9.02434 41.5933 7.24391C42.4397 7.24391 43.2569 7.24391 44.1326 7.24391C44.1326 5.14243 44.1326 3.04094 44.1326 0.939453C46.2924 0.939453 48.4231 0.939453 50.583 0.939453C50.583 3.01175 50.583 5.05486 50.583 7.15635C52.4801 7.15635 54.3481 7.15635 56.2453 7.15635C56.2453 8.93677 56.2453 10.688 56.2453 12.4393C54.3773 12.4393 52.5385 12.4393 50.6705 12.4393C50.6705 12.7019 50.6413 12.9062 50.6413 13.1397C50.6413 17.1092 50.6413 21.0787 50.6413 25.019C50.6413 25.2817 50.6705 25.5735 50.7289 25.8362C50.9332 26.7702 51.5753 27.2664 52.5969 27.2664C53.7936 27.2956 54.961 27.2956 56.1577 27.3248C56.2161 27.3248 56.3037 27.3248 56.3912 27.3248C56.3912 27.4415 56.4204 27.5291 56.4204 27.6166C56.4204 29.1052 56.4204 30.5938 56.4204 32.0823C56.4204 32.6369 56.3329 32.6952 55.7783 32.6952C54.3189 32.6952 52.8596 32.7244 51.4002 32.6661C50.1451 32.6369 48.9485 32.4034 47.8102 31.878C45.8254 30.9732 44.7163 29.4263 44.3952 27.2956C44.3077 26.7702 44.2785 26.2448 44.2785 25.7195C44.2493 24.0558 44.2785 22.3629 44.2493 20.6993C44.2493 18.0432 44.2201 15.358 44.2201 12.7019C44.1617 12.7019 44.1617 12.6144 44.1617 12.5268Z" fill="#222222"/>
<path d="M88.7891 32.6949C88.7891 24.2014 88.7891 15.7079 88.7891 7.24358C90.8905 7.24358 92.992 7.24358 95.1519 7.24358C95.1519 8.64457 95.1519 10.0748 95.1519 11.4757C95.1811 11.4757 95.2103 11.5049 95.2394 11.5049C95.327 11.3882 95.4146 11.2714 95.473 11.1547C96.2318 9.89963 97.1366 8.79051 98.3917 8.00245C99.6175 7.2144 100.931 6.86415 102.361 6.83496C102.42 6.83496 102.449 6.83496 102.507 6.83496C102.536 6.83496 102.536 6.83496 102.565 6.86415C102.565 9.02401 102.565 11.1839 102.565 13.3729C102.361 13.3729 102.157 13.4021 101.923 13.4021C100.785 13.4313 99.6175 13.4897 98.5084 13.8107C96.5529 14.3945 95.5021 15.6495 95.327 17.6635C95.2395 18.8018 95.1519 19.9401 95.1519 21.1076C95.1227 24.8435 95.1227 28.5795 95.0935 32.3155C95.0935 32.6949 95.0643 32.7241 94.6849 32.7241C92.8169 32.7241 90.9197 32.7241 89.0517 32.7241C88.9934 32.6949 88.9058 32.6949 88.7891 32.6949Z" fill="#222222"/>
<path d="M0.000997087 26.4197C-0.0573775 23.1215 2.45273 20.3779 6.13033 20.3779C9.60362 20.3779 12.2013 22.9756 12.1721 26.5656C12.1429 29.9806 9.48687 32.6074 5.9844 32.549C2.62785 32.5198 -0.0573775 29.893 0.000997087 26.4197Z" fill="#F05A22"/>
<path d="M130.76 28.754C130.76 28.8415 130.76 28.8999 130.76 28.9874C130.76 29.0166 130.731 29.0458 130.731 29.075C130.731 29.6588 130.702 30.2133 130.702 30.7971C130.702 31.5851 130.702 32.344 130.702 33.132C130.702 33.1612 130.702 33.1904 130.702 33.2488C130.643 33.2488 130.585 33.2488 130.526 33.2488C128.95 33.2488 127.403 33.2488 125.827 33.2488C125.565 33.2488 125.331 33.1612 125.156 32.9569C124.339 32.1397 123.521 31.3224 122.704 30.5052C121.216 29.0166 119.756 27.5281 118.268 26.0687C117.188 24.9888 116.137 23.938 115.086 22.8581C114.824 22.5954 114.59 22.3327 114.327 22.0409C114.182 21.8657 114.036 21.7198 113.86 21.5447C113.831 21.6031 113.773 21.6322 113.744 21.6614C113.218 22.2744 112.693 22.9165 112.168 23.5294C111.876 23.8797 111.73 24.2591 111.73 24.6969C111.73 25.0763 111.759 25.4266 111.759 25.806C111.759 27.1195 111.759 28.4621 111.759 29.7755C111.759 30.6511 111.759 31.4976 111.759 32.3732C111.759 32.6067 111.73 32.811 111.759 33.0445C111.759 33.1612 111.701 33.1612 111.613 33.1612C109.862 33.1612 108.081 33.1612 106.33 33.1612C106.301 33.1612 106.243 33.1612 106.213 33.1612C106.213 22.1576 106.213 11.1832 106.213 0.179578C106.272 0.179578 106.301 0.179578 106.359 0.179578C108.111 0.179578 109.891 0.179578 111.642 0.179578C111.671 0.179578 111.73 0.179578 111.788 0.179578C111.788 5.17061 111.788 10.1616 111.788 15.1819C111.817 15.1235 111.847 15.0943 111.876 15.0651C113.102 13.4014 114.327 11.7086 115.553 10.0449C117.917 6.83428 120.252 3.65287 122.617 0.442264C122.675 0.354702 122.763 0.237953 122.821 0.150391C125.448 0.150391 128.045 0.150391 130.672 0.150391C130.585 0.26714 130.497 0.354702 130.439 0.471451C129.563 1.66813 128.658 2.83562 127.783 4.0323C126.674 5.55004 125.535 7.06778 124.426 8.58552C123.638 9.63626 122.879 10.687 122.091 11.7086C121.42 12.6134 120.749 13.5182 120.077 14.423C119.698 14.9192 119.348 15.4154 118.968 15.9407C118.939 15.9991 118.939 16.0283 118.968 16.0575C119.114 16.2034 119.231 16.3493 119.377 16.4953C122.529 19.6767 125.711 22.8289 128.863 25.9812C129.271 26.3898 129.68 26.7692 130.089 27.1486C130.468 27.4989 130.731 27.9367 130.789 28.4621C130.731 28.608 130.76 28.6956 130.76 28.754ZM124.981 30.6219C125.331 30.9722 125.711 31.3224 126.061 31.6727C126.09 31.7019 126.119 31.7019 126.148 31.7019C126.323 31.7019 126.499 31.7019 126.703 31.6727C126.966 31.6727 127.228 31.6435 127.491 31.6435C127.491 31.0889 127.491 30.5344 127.491 29.9798C128.045 29.9798 128.6 29.9798 129.184 29.9798C129.155 29.5128 129.125 29.0458 129.096 28.5788C129.096 28.5496 129.067 28.5205 129.038 28.4913C128.688 28.141 128.337 27.7908 127.987 27.4405C127.958 27.4113 127.958 27.4113 127.929 27.3821C126.966 28.4621 125.973 29.542 124.981 30.6219ZM119.494 19.2097C119.318 19.2097 119.202 19.2973 119.173 19.414C119.114 19.5599 119.173 19.6475 119.289 19.7643C121.653 22.1284 124.047 24.5218 126.411 26.886C126.44 26.9151 126.44 26.9152 126.469 26.9443C126.644 27.0903 126.907 27.0027 126.966 26.7692C126.995 26.6525 126.907 26.5649 126.849 26.4773C124.601 24.2299 122.325 21.9533 120.077 19.7059C119.961 19.5891 119.844 19.4724 119.727 19.3556C119.61 19.2681 119.552 19.2389 119.494 19.2097Z" fill="#222222"/>
<path d="M17.4227 44.4168H19.9421V45.5898H15.8009V44.4372L18.2693 41.112H15.8111V39.939H19.9115V41.0916L17.4227 44.4168ZM23.557 45.6816C23.013 45.6816 22.5234 45.5626 22.0882 45.3246C21.653 45.0798 21.3096 44.7364 21.058 44.2944C20.8132 43.8524 20.6908 43.3424 20.6908 42.7644C20.6908 42.1864 20.8166 41.6764 21.0682 41.2344C21.3266 40.7924 21.6768 40.4524 22.1188 40.2144C22.5608 39.9696 23.0538 39.8472 23.5978 39.8472C24.1418 39.8472 24.6348 39.9696 25.0768 40.2144C25.5188 40.4524 25.8656 40.7924 26.1172 41.2344C26.3756 41.6764 26.5048 42.1864 26.5048 42.7644C26.5048 43.3424 26.3722 43.8524 26.107 44.2944C25.8486 44.7364 25.495 45.0798 25.0462 45.3246C24.6042 45.5626 24.1078 45.6816 23.557 45.6816ZM23.557 44.4372C23.8154 44.4372 24.0568 44.376 24.2812 44.2536C24.5124 44.1244 24.696 43.934 24.832 43.6824C24.968 43.4308 25.036 43.1248 25.036 42.7644C25.036 42.2272 24.8932 41.8158 24.6076 41.5302C24.3288 41.2378 23.9854 41.0916 23.5774 41.0916C23.1694 41.0916 22.826 41.2378 22.5472 41.5302C22.2752 41.8158 22.1392 42.2272 22.1392 42.7644C22.1392 43.3016 22.2718 43.7164 22.537 44.0088C22.809 44.2944 23.149 44.4372 23.557 44.4372ZM30.0615 45.6816C29.5175 45.6816 29.0279 45.5626 28.5927 45.3246C28.1575 45.0798 27.8141 44.7364 27.5625 44.2944C27.3177 43.8524 27.1953 43.3424 27.1953 42.7644C27.1953 42.1864 27.3211 41.6764 27.5727 41.2344C27.8311 40.7924 28.1813 40.4524 28.6233 40.2144C29.0653 39.9696 29.5583 39.8472 30.1023 39.8472C30.6463 39.8472 31.1393 39.9696 31.5813 40.2144C32.0233 40.4524 32.3701 40.7924 32.6217 41.2344C32.8801 41.6764 33.0093 42.1864 33.0093 42.7644C33.0093 43.3424 32.8767 43.8524 32.6115 44.2944C32.3531 44.7364 31.9995 45.0798 31.5507 45.3246C31.1087 45.5626 30.6123 45.6816 30.0615 45.6816ZM30.0615 44.4372C30.3199 44.4372 30.5613 44.376 30.7857 44.2536C31.0169 44.1244 31.2005 43.934 31.3365 43.6824C31.4725 43.4308 31.5405 43.1248 31.5405 42.7644C31.5405 42.2272 31.3977 41.8158 31.1121 41.5302C30.8333 41.2378 30.4899 41.0916 30.0819 41.0916C29.6739 41.0916 29.3305 41.2378 29.0517 41.5302C28.7797 41.8158 28.6437 42.2272 28.6437 42.7644C28.6437 43.3016 28.7763 43.7164 29.0415 44.0088C29.3135 44.2944 29.6535 44.4372 30.0615 44.4372ZM41.0744 39.8574C41.768 39.8574 42.3256 40.0716 42.7472 40.5C43.1756 40.9216 43.3898 41.5132 43.3898 42.2748V45.5898H41.9618V42.4686C41.9618 42.0266 41.8496 41.69 41.6252 41.4588C41.4008 41.2208 41.0948 41.1018 40.7072 41.1018C40.3196 41.1018 40.0102 41.2208 39.779 41.4588C39.5546 41.69 39.4424 42.0266 39.4424 42.4686V45.5898H38.0144V42.4686C38.0144 42.0266 37.9022 41.69 37.6778 41.4588C37.4534 41.2208 37.1474 41.1018 36.7598 41.1018C36.3654 41.1018 36.0526 41.2208 35.8214 41.4588C35.597 41.69 35.4848 42.0266 35.4848 42.4686V45.5898H34.0568V39.939H35.4848V40.6224C35.6684 40.3844 35.903 40.1974 36.1886 40.0614C36.481 39.9254 36.8006 39.8574 37.1474 39.8574C37.5894 39.8574 37.9838 39.9526 38.3306 40.143C38.6774 40.3266 38.946 40.5918 39.1364 40.9386C39.32 40.6122 39.5852 40.3504 39.932 40.1532C40.2856 39.956 40.6664 39.8574 41.0744 39.8574ZM45.4691 39.2658C45.2175 39.2658 45.0067 39.1876 44.8367 39.0312C44.6735 38.868 44.5919 38.6674 44.5919 38.4294C44.5919 38.1914 44.6735 37.9942 44.8367 37.8378C45.0067 37.6746 45.2175 37.593 45.4691 37.593C45.7207 37.593 45.9281 37.6746 46.0913 37.8378C46.2613 37.9942 46.3463 38.1914 46.3463 38.4294C46.3463 38.6674 46.2613 38.868 46.0913 39.0312C45.9281 39.1876 45.7207 39.2658 45.4691 39.2658ZM46.1729 39.939V45.5898H44.7449V39.939H46.1729ZM50.7151 39.8574C51.3883 39.8574 51.9323 40.0716 52.3471 40.5C52.7619 40.9216 52.9693 41.5132 52.9693 42.2748V45.5898H51.5413V42.4686C51.5413 42.0198 51.4291 41.6764 51.2047 41.4384C50.9803 41.1936 50.6743 41.0712 50.2867 41.0712C49.8923 41.0712 49.5795 41.1936 49.3483 41.4384C49.1239 41.6764 49.0117 42.0198 49.0117 42.4686V45.5898H47.5837V39.939H49.0117V40.6428C49.2021 40.398 49.4435 40.2076 49.7359 40.0716C50.0351 39.9288 50.3615 39.8574 50.7151 39.8574ZM56.5407 39.8472C56.9623 39.8472 57.3329 39.9322 57.6525 40.1022C57.9721 40.2654 58.2237 40.4796 58.4073 40.7448V39.939H59.8455V45.6306C59.8455 46.1542 59.7401 46.62 59.5293 47.028C59.3185 47.4428 59.0023 47.7692 58.5807 48.0072C58.1591 48.252 57.6491 48.3744 57.0507 48.3744C56.2483 48.3744 55.5887 48.1874 55.0719 47.8134C54.5619 47.4394 54.2729 46.9294 54.2049 46.2834H55.6227C55.6975 46.5418 55.8573 46.7458 56.1021 46.8954C56.3537 47.0518 56.6563 47.13 57.0099 47.13C57.4247 47.13 57.7613 47.0042 58.0197 46.7526C58.2781 46.5078 58.4073 46.1338 58.4073 45.6306V44.7534C58.2237 45.0186 57.9687 45.2396 57.6423 45.4164C57.3227 45.5932 56.9555 45.6816 56.5407 45.6816C56.0647 45.6816 55.6295 45.5592 55.2351 45.3144C54.8407 45.0696 54.5279 44.7262 54.2967 44.2842C54.0723 43.8354 53.9601 43.322 53.9601 42.744C53.9601 42.1728 54.0723 41.6662 54.2967 41.2242C54.5279 40.7822 54.8373 40.4422 55.2249 40.2042C55.6193 39.9662 56.0579 39.8472 56.5407 39.8472ZM58.4073 42.7644C58.4073 42.4176 58.3393 42.1218 58.2033 41.877C58.0673 41.6254 57.8837 41.435 57.6525 41.3058C57.4213 41.1698 57.1731 41.1018 56.9079 41.1018C56.6427 41.1018 56.3979 41.1664 56.1735 41.2956C55.9491 41.4248 55.7655 41.6152 55.6227 41.8668C55.4867 42.1116 55.4187 42.404 55.4187 42.744C55.4187 43.084 55.4867 43.3832 55.6227 43.6416C55.7655 43.8932 55.9491 44.087 56.1735 44.223C56.4047 44.359 56.6495 44.427 56.9079 44.427C57.1731 44.427 57.4213 44.3624 57.6525 44.2332C57.8837 44.0972 58.0673 43.9068 58.2033 43.662C58.3393 43.4104 58.4073 43.1112 58.4073 42.7644ZM64.3948 39.2658C64.1432 39.2658 63.9324 39.1876 63.7624 39.0312C63.5992 38.868 63.5176 38.6674 63.5176 38.4294C63.5176 38.1914 63.5992 37.9942 63.7624 37.8378C63.9324 37.6746 64.1432 37.593 64.3948 37.593C64.6464 37.593 64.8538 37.6746 65.017 37.8378C65.187 37.9942 65.272 38.1914 65.272 38.4294C65.272 38.6674 65.187 38.868 65.017 39.0312C64.8538 39.1876 64.6464 39.2658 64.3948 39.2658ZM65.0986 39.939V45.5898H63.6706V39.939H65.0986ZM69.6409 39.8574C70.3141 39.8574 70.8581 40.0716 71.2729 40.5C71.6877 40.9216 71.8951 41.5132 71.8951 42.2748V45.5898H70.4671V42.4686C70.4671 42.0198 70.3549 41.6764 70.1305 41.4384C69.9061 41.1936 69.6001 41.0712 69.2125 41.0712C68.8181 41.0712 68.5053 41.1936 68.2741 41.4384C68.0497 41.6764 67.9375 42.0198 67.9375 42.4686V45.5898H66.5095V39.939H67.9375V40.6428C68.1279 40.398 68.3693 40.2076 68.6617 40.0716C68.9609 39.9288 69.2873 39.8574 69.6409 39.8574ZM74.9157 41.112V43.8456C74.9157 44.036 74.9599 44.1754 75.0483 44.2638C75.1435 44.3454 75.2999 44.3862 75.5175 44.3862H76.1805V45.5898H75.2829C74.0793 45.5898 73.4775 45.005 73.4775 43.8354V41.112H72.8043V39.939H73.4775V38.5416H74.9157V39.939H76.1805V41.112H74.9157ZM79.7168 45.6816C79.1728 45.6816 78.6832 45.5626 78.248 45.3246C77.8128 45.0798 77.4694 44.7364 77.2178 44.2944C76.973 43.8524 76.8506 43.3424 76.8506 42.7644C76.8506 42.1864 76.9764 41.6764 77.228 41.2344C77.4864 40.7924 77.8366 40.4524 78.2786 40.2144C78.7206 39.9696 79.2136 39.8472 79.7576 39.8472C80.3016 39.8472 80.7946 39.9696 81.2366 40.2144C81.6786 40.4524 82.0254 40.7924 82.277 41.2344C82.5354 41.6764 82.6646 42.1864 82.6646 42.7644C82.6646 43.3424 82.532 43.8524 82.2668 44.2944C82.0084 44.7364 81.6548 45.0798 81.206 45.3246C80.764 45.5626 80.2676 45.6816 79.7168 45.6816ZM79.7168 44.4372C79.9752 44.4372 80.2166 44.376 80.441 44.2536C80.6722 44.1244 80.8558 43.934 80.9918 43.6824C81.1278 43.4308 81.1958 43.1248 81.1958 42.7644C81.1958 42.2272 81.053 41.8158 80.7674 41.5302C80.4886 41.2378 80.1452 41.0916 79.7372 41.0916C79.3292 41.0916 78.9858 41.2378 78.707 41.5302C78.435 41.8158 78.299 42.2272 78.299 42.7644C78.299 43.3016 78.4316 43.7164 78.6968 44.0088C78.9688 44.2944 79.3088 44.4372 79.7168 44.4372ZM88.3049 45.6816C87.8425 45.6816 87.4277 45.6 87.0605 45.4368C86.6933 45.2668 86.4009 45.039 86.1833 44.7534C85.9725 44.4678 85.8569 44.1516 85.8365 43.8048H87.2747C87.3019 44.0224 87.4073 44.2026 87.5909 44.3454C87.7813 44.4882 88.0159 44.5596 88.2947 44.5596C88.5667 44.5596 88.7775 44.5052 88.9271 44.3964C89.0835 44.2876 89.1617 44.1482 89.1617 43.9782C89.1617 43.7946 89.0665 43.6586 88.8761 43.5702C88.6925 43.475 88.3967 43.373 87.9887 43.2642C87.5671 43.1622 87.2203 43.0568 86.9483 42.948C86.6831 42.8392 86.4519 42.6726 86.2547 42.4482C86.0643 42.2238 85.9691 41.9212 85.9691 41.5404C85.9691 41.2276 86.0575 40.942 86.2343 40.6836C86.4179 40.4252 86.6763 40.2212 87.0095 40.0716C87.3495 39.922 87.7473 39.8472 88.2029 39.8472C88.8761 39.8472 89.4133 40.0172 89.8145 40.3572C90.2157 40.6904 90.4367 41.1426 90.4775 41.7138H89.1107C89.0903 41.4894 88.9951 41.3126 88.8251 41.1834C88.6619 41.0474 88.4409 40.9794 88.1621 40.9794C87.9037 40.9794 87.7031 41.027 87.5603 41.1222C87.4243 41.2174 87.3563 41.35 87.3563 41.52C87.3563 41.7104 87.4515 41.8566 87.6419 41.9586C87.8323 42.0538 88.1281 42.1524 88.5293 42.2544C88.9373 42.3564 89.2739 42.4618 89.5391 42.5706C89.8043 42.6794 90.0321 42.8494 90.2225 43.0806C90.4197 43.305 90.5217 43.6042 90.5285 43.9782C90.5285 44.3046 90.4367 44.597 90.2531 44.8554C90.0763 45.1138 89.8179 45.3178 89.4779 45.4674C89.1447 45.6102 88.7537 45.6816 88.3049 45.6816ZM94.2099 45.6816C93.6659 45.6816 93.1763 45.5626 92.7411 45.3246C92.3059 45.0798 91.9625 44.7364 91.7109 44.2944C91.4661 43.8524 91.3437 43.3424 91.3437 42.7644C91.3437 42.1864 91.4695 41.6764 91.7211 41.2344C91.9795 40.7924 92.3297 40.4524 92.7717 40.2144C93.2137 39.9696 93.7067 39.8472 94.2507 39.8472C94.7947 39.8472 95.2877 39.9696 95.7297 40.2144C96.1717 40.4524 96.5185 40.7924 96.7701 41.2344C97.0285 41.6764 97.1577 42.1864 97.1577 42.7644C97.1577 43.3424 97.0251 43.8524 96.7599 44.2944C96.5015 44.7364 96.1479 45.0798 95.6991 45.3246C95.2571 45.5626 94.7607 45.6816 94.2099 45.6816ZM94.2099 44.4372C94.4683 44.4372 94.7097 44.376 94.9341 44.2536C95.1653 44.1244 95.3489 43.934 95.4849 43.6824C95.6209 43.4308 95.6889 43.1248 95.6889 42.7644C95.6889 42.2272 95.5461 41.8158 95.2605 41.5302C94.9817 41.2378 94.6383 41.0916 94.2303 41.0916C93.8223 41.0916 93.4789 41.2378 93.2001 41.5302C92.9281 41.8158 92.7921 42.2272 92.7921 42.7644C92.7921 43.3016 92.9247 43.7164 93.1899 44.0088C93.4619 44.2944 93.8019 44.4372 94.2099 44.4372ZM99.6332 38.0418V45.5898H98.2052V38.0418H99.6332ZM106.379 39.939V45.5898H104.94V44.8758C104.757 45.1206 104.515 45.3144 104.216 45.4572C103.924 45.5932 103.604 45.6612 103.257 45.6612C102.815 45.6612 102.424 45.5694 102.084 45.3858C101.744 45.1954 101.476 44.92 101.279 44.5596C101.088 44.1924 100.993 43.7572 100.993 43.254V39.939H102.421V43.05C102.421 43.4988 102.533 43.8456 102.758 44.0904C102.982 44.3284 103.288 44.4474 103.676 44.4474C104.07 44.4474 104.379 44.3284 104.604 44.0904C104.828 43.8456 104.94 43.4988 104.94 43.05V39.939H106.379ZM109.45 41.112V43.8456C109.45 44.036 109.494 44.1754 109.583 44.2638C109.678 44.3454 109.834 44.3862 110.052 44.3862H110.715V45.5898H109.817C108.614 45.5898 108.012 45.005 108.012 43.8354V41.112H107.339V39.939H108.012V38.5416H109.45V39.939H110.715V41.112H109.45ZM112.466 39.2658C112.215 39.2658 112.004 39.1876 111.834 39.0312C111.671 38.868 111.589 38.6674 111.589 38.4294C111.589 38.1914 111.671 37.9942 111.834 37.8378C112.004 37.6746 112.215 37.593 112.466 37.593C112.718 37.593 112.925 37.6746 113.089 37.8378C113.259 37.9942 113.344 38.1914 113.344 38.4294C113.344 38.6674 113.259 38.868 113.089 39.0312C112.925 39.1876 112.718 39.2658 112.466 39.2658ZM113.17 39.939V45.5898H111.742V39.939H113.17ZM117.09 45.6816C116.546 45.6816 116.057 45.5626 115.621 45.3246C115.186 45.0798 114.843 44.7364 114.591 44.2944C114.346 43.8524 114.224 43.3424 114.224 42.7644C114.224 42.1864 114.35 41.6764 114.601 41.2344C114.86 40.7924 115.21 40.4524 115.652 40.2144C116.094 39.9696 116.587 39.8472 117.131 39.8472C117.675 39.8472 118.168 39.9696 118.61 40.2144C119.052 40.4524 119.399 40.7924 119.65 41.2344C119.909 41.6764 120.038 42.1864 120.038 42.7644C120.038 43.3424 119.905 43.8524 119.64 44.2944C119.382 44.7364 119.028 45.0798 118.579 45.3246C118.137 45.5626 117.641 45.6816 117.09 45.6816ZM117.09 44.4372C117.349 44.4372 117.59 44.376 117.814 44.2536C118.046 44.1244 118.229 43.934 118.365 43.6824C118.501 43.4308 118.569 43.1248 118.569 42.7644C118.569 42.2272 118.426 41.8158 118.141 41.5302C117.862 41.2378 117.519 41.0916 117.111 41.0916C116.703 41.0916 116.359 41.2378 116.08 41.5302C115.808 41.8158 115.672 42.2272 115.672 42.7644C115.672 43.3016 115.805 43.7164 116.07 44.0088C116.342 44.2944 116.682 44.4372 117.09 44.4372ZM124.217 39.8574C124.89 39.8574 125.434 40.0716 125.849 40.5C126.264 40.9216 126.471 41.5132 126.471 42.2748V45.5898H125.043V42.4686C125.043 42.0198 124.931 41.6764 124.706 41.4384C124.482 41.1936 124.176 41.0712 123.788 41.0712C123.394 41.0712 123.081 41.1936 122.85 41.4384C122.626 41.6764 122.513 42.0198 122.513 42.4686V45.5898H121.085V39.939H122.513V40.6428C122.704 40.398 122.945 40.2076 123.238 40.0716C123.537 39.9288 123.863 39.8574 124.217 39.8574ZM129.991 45.6816C129.529 45.6816 129.114 45.6 128.747 45.4368C128.38 45.2668 128.087 45.039 127.87 44.7534C127.659 44.4678 127.543 44.1516 127.523 43.8048H128.961C128.988 44.0224 129.094 44.2026 129.277 44.3454C129.468 44.4882 129.702 44.5596 129.981 44.5596C130.253 44.5596 130.464 44.5052 130.614 44.3964C130.77 44.2876 130.848 44.1482 130.848 43.9782C130.848 43.7946 130.753 43.6586 130.563 43.5702C130.379 43.475 130.083 43.373 129.675 43.2642C129.254 43.1622 128.907 43.0568 128.635 42.948C128.37 42.8392 128.138 42.6726 127.941 42.4482C127.751 42.2238 127.656 41.9212 127.656 41.5404C127.656 41.2276 127.744 40.942 127.921 40.6836C128.104 40.4252 128.363 40.2212 128.696 40.0716C129.036 39.922 129.434 39.8472 129.889 39.8472C130.563 39.8472 131.1 40.0172 131.501 40.3572C131.902 40.6904 132.123 41.1426 132.164 41.7138H130.797C130.777 41.4894 130.682 41.3126 130.512 41.1834C130.348 41.0474 130.127 40.9794 129.849 40.9794C129.59 40.9794 129.39 41.027 129.247 41.1222C129.111 41.2174 129.043 41.35 129.043 41.52C129.043 41.7104 129.138 41.8566 129.328 41.9586C129.519 42.0538 129.815 42.1524 130.216 42.2544C130.624 42.3564 130.96 42.4618 131.226 42.5706C131.491 42.6794 131.719 42.8494 131.909 43.0806C132.106 43.305 132.208 43.6042 132.215 43.9782C132.215 44.3046 132.123 44.597 131.94 44.8554C131.763 45.1138 131.504 45.3178 131.164 45.4674C130.831 45.6102 130.44 45.6816 129.991 45.6816Z" fill="#222222"/>
</svg>
