<svg width="60" height="61" viewBox="0 0 60 61" fill="none" xmlns="http://www.w3.org/2000/svg">
<path d="M45 42.6993V39.6993H41.8489C41.71 38.6012 41.477 37.5313 41.0619 36.5453L43.7399 34.9992L42.2399 32.4002L39.5209 33.9702C38.862 33.1042 38.0939 32.3362 37.2279 31.6772L38.7969 28.9591L36.2009 27.4591L34.6539 30.1371C33.6679 29.7211 32.5978 29.4891 31.4979 29.3501V26.2002H28.4979V29.3511C27.3979 29.4901 26.3289 29.7221 25.3419 30.1382L23.7949 27.4602L21.1989 28.9602L22.7679 31.6782C21.9019 32.3372 21.1339 33.1052 20.4749 33.9712L17.7559 32.4013L16.2559 35.0003L18.9339 36.5463C18.5189 37.5323 18.2858 38.6013 18.1468 39.7014H15V42.7014H18.1511C18.29 43.8004 18.5221 44.8704 18.9381 45.8564L16.2601 47.4025L17.7601 50.0014L20.4791 48.4315C21.138 49.2975 21.9061 50.0654 22.7721 50.7245L21.2031 53.4425L23.7991 54.9425L25.3452 52.2646C26.3321 52.6806 27.4013 52.9126 28.5012 53.0516V56.2002H31.5012V53.0491C32.6012 52.9102 33.6702 52.6781 34.6571 52.2621L36.2032 54.9401L38.7993 53.4401L37.2302 50.722C38.0963 50.0631 38.8642 49.295 39.5232 48.429L42.2422 49.999L43.7422 47.4L41.0643 45.8539C41.4803 44.8679 41.7123 43.7989 41.8513 42.6989H45V42.6993ZM30 50.2002C25.037 50.2002 21 46.1632 21 41.2002C21 36.2372 25.037 32.2002 30 32.2002C34.963 32.2002 39 36.2372 39 41.2002C39 46.1632 34.963 50.2002 30 50.2002Z" fill="#F05A22"/>
<path d="M45.8561 17.3682C43.942 10.2802 37.519 5.2002 30 5.2002C22.481 5.2002 16.058 10.2802 14.1439 17.3682C6.15703 18.5142 0 25.4012 0 33.7002C0 41.7652 5.84203 48.4192 13.5 49.8432V46.7393C7.50504 45.3702 3 40.1112 3 33.7002C3 26.2441 9.04406 20.2002 16.5 20.2002C16.551 20.2002 16.599 20.2141 16.65 20.2152C17.398 13.4672 23.053 8.2002 30 8.2002C36.947 8.2002 42.602 13.4672 43.35 20.2152C43.401 20.2141 43.449 20.2002 43.5 20.2002C50.9561 20.2002 57 26.2441 57 33.7002C57 40.1112 52.495 45.3702 46.5 46.7392V49.8431C54.158 48.4192 60 41.7652 60 33.7002C60 25.4012 53.843 18.5142 45.8561 17.3682Z" fill="white"/>
</svg>
